<svg id="Layer_1" data-name="Layer 1" xmlns="http://www.w3.org/2000/svg" width="520" height="520" viewBox="0 0 520 520"><defs><style>.cls-1{fill:#221f1f;}</style></defs><title>Notioly v2</title><g id="_68.Click_here" data-name="68.Click here"><path class="cls-1" d="M249.2,261.71A153.54,153.54,0,0,1,259.81,276a116,116,0,0,1,8.73,15.61,47.33,47.33,0,0,1,3,8.65,19.55,19.55,0,0,1,.53,4.85,8.24,8.24,0,0,1-1.89,5.28,6.8,6.8,0,0,1-2.49,1.73,10.28,10.28,0,0,1-2.69.6,9.13,9.13,0,0,1-1.4,0l-.41,0-.33-.07c-.22,0-.46-.09-.66-.15a21.75,21.75,0,0,1-2.28-.76c-2.84-1.12-5.46-2.36-8.14-3.5-7.76-3.37-15.78-6.1-24-6.88a41.52,41.52,0,0,0-10.8.33c-.89.11-1.76.36-2.64.54s-1.72.49-2.58.75-1.7.58-2.52,1a24.85,24.85,0,0,0-2.37,1.13c-1.45.78-2.69,1.92-2.78,2.89a2.47,2.47,0,0,0,.43,1.58,6.75,6.75,0,0,0,1.56,1.61,16.05,16.05,0,0,0,4.61,2.23q2.61.87,5.31,1.54c3.59.91,7.27,1.62,11,2.35A113.23,113.23,0,0,1,238.11,320a105.58,105.58,0,0,1,21,9,132.33,132.33,0,0,1,16.77,11.31,119.39,119.39,0,0,0,16.72,10.54,91.3,91.3,0,0,0,23.69,8.45,81.74,81.74,0,0,0,12.46,1.54,102.42,102.42,0,0,0,12.61-.29,10.23,10.23,0,0,1,3.1.11c1,.23,1,.75.91.84s-.16,0-.37,0a2.93,2.93,0,0,0-.81.11l-2.57.76a49.44,49.44,0,0,1-9.32,1.73,55.06,55.06,0,0,1-13.64-.53,90.64,90.64,0,0,1-25.38-8.31A125.85,125.85,0,0,1,270.92,341,112.76,112.76,0,0,0,249,327.76a100.69,100.69,0,0,0-12-4.59,116.65,116.65,0,0,0-12.58-3.08,121.22,121.22,0,0,1-15.62-4,18.85,18.85,0,0,1-4-1.94,9.51,9.51,0,0,1-3.32-3.45l-.3-.61c-.08-.21-.13-.45-.2-.68a5,5,0,0,1-.16-1.45,7.11,7.11,0,0,1,.26-1.45,9.09,9.09,0,0,1,.62-1.25,9.73,9.73,0,0,1,3.62-3.13,38.14,38.14,0,0,1,7.89-3.1,41.93,41.93,0,0,1,8.32-1.25A54.12,54.12,0,0,1,238,299.74a111.67,111.67,0,0,1,16.84,6.16l4,1.77a36.85,36.85,0,0,0,3.95,1.51,7.06,7.06,0,0,0,.89.21l.34,0c.13,0,.3,0,.46,0a6,6,0,0,0,1.75-.33,3.23,3.23,0,0,0,2.11-2.13,8.81,8.81,0,0,0,.25-3.74,23.7,23.7,0,0,0-.88-4.07,55.72,55.72,0,0,0-3.2-8A123.8,123.8,0,0,0,255.72,276a131.9,131.9,0,0,0-13.4-16.88c-1.23-1.3-2.53-2.49-3.88-3.74l-4-3.71c-2.66-2.5-5.29-5-7.86-7.61a150.19,150.19,0,0,1-11.1-12.39,73.58,73.58,0,0,1-9-14.13A34.15,34.15,0,0,1,203,201.13a16.35,16.35,0,0,1,.23-2.16,9.21,9.21,0,0,1,.67-2.22,4.18,4.18,0,0,1,1.74-2,3.86,3.86,0,0,1,2.69-.34,11.18,11.18,0,0,1,4.05,2,39.06,39.06,0,0,1,3.26,2.68,59.05,59.05,0,0,1,4.47,4.66l4.23,4.72,8.45,9.33C238.39,224,244.11,230,250,236c2.59,2.61,5.18,5.11,7.87,7.66,5,4.72,8.4,7.61,10.82,9.59l4.93,4a10.28,10.28,0,0,0,1.71,1.07c.33.21.25.38-.35.48a6.63,6.63,0,0,1-2.88-.49c-2.56-.9-6-3.12-10-6.37a228.93,228.93,0,0,1-16.76-15.69c-5.41-5.5-10.72-11.2-16-17l-7.87-8.77-3.93-4.4c-1.31-1.43-2.63-3-3.9-4.14a28.45,28.45,0,0,0-4.27-3.38,5.83,5.83,0,0,0-1.87-.81.8.8,0,0,0-.31,0l-.1.11a4.18,4.18,0,0,0-.59,1.7,22.65,22.65,0,0,0-.23,2.6,28.23,28.23,0,0,0,.45,5.41,44.67,44.67,0,0,0,6.64,15.32,103.59,103.59,0,0,0,10.71,13.6c3.94,4.3,8.14,8.4,12.43,12.43l6.52,6.06a90.19,90.19,0,0,1,6.19,6.67Z"/><path class="cls-1" d="M299.46,238.91a27.9,27.9,0,0,1,4.84,1.52c.56.23,1.15.37,1.69.64a34.08,34.08,0,0,1,5.38,3.31l2.3,1.64a6.24,6.24,0,0,1,2.54,2.69c.15.39-.63.84-1.51,1.13s-1.8.48-2.17.1c-1.39-1.35-3-2.65-4.75-4.1a14,14,0,0,0-3.62-1.84,29.71,29.71,0,0,0-4.21-1.49,12.08,12.08,0,0,0-2.63-.41,7.09,7.09,0,0,0-3.78.76A7.29,7.29,0,0,0,291.4,245c-.15.17-.25.38-.39.55-.53.64-.86.72-1.71.28-.19-.1-.39-.19-.57-.3a1.3,1.3,0,0,1-.51-1.75,8.87,8.87,0,0,1,2.16-2.8,9.45,9.45,0,0,1,3.43-1.88,12.67,12.67,0,0,1,5.65-.25Z"/><path class="cls-1" d="M273.45,239.49l1.34,0c.45,0,.89.09,1.33.14a24.88,24.88,0,0,1,2.61.41c.63.1,1.26.21,1.88.37a28.46,28.46,0,0,1,6.1,2.68c.86.45,1.71.95,2.58,1.38.54.32,1.1.6,1.64.93a5.72,5.72,0,0,1,1.36,1.33c.23.34-.42,1-1.22,1.43s-1.75.8-2.23.43c-1.8-1.25-3.65-2.41-5.61-3.66a6.73,6.73,0,0,0-1.93-.82c-.67-.23-1.37-.33-2.05-.51s-1.51-.31-2.27-.47-1.54-.2-2.31-.24l-1.44,0c-.47,0-1,.07-1.42.11a15.42,15.42,0,0,0-2.14.36,14.48,14.48,0,0,0-2.05.68,15,15,0,0,0-1.39.89c-.43.33-.81.74-1.22,1.08a5.79,5.79,0,0,0-.48.51c-.62.61-1,.6-1.77.06-.18-.12-.37-.24-.54-.37a1.25,1.25,0,0,1-.21-1.81,11.17,11.17,0,0,1,6-4.13,19.26,19.26,0,0,1,2.7-.64,25.13,25.13,0,0,1,2.73-.23Z"/><path class="cls-1" d="M356.44,288.2c3.5,7.38,7,14.73,10.89,21.87l2.2,3.85,2.29,3.77a73.23,73.23,0,0,0,4.31,6.37,29.08,29.08,0,0,0,2.42,2.85c.38.45.91.95,1.36,1.4l1.4,1.36c3.77,3.61,7.68,7.08,11.74,10.35a109.49,109.49,0,0,0,11.31,8,72.25,72.25,0,0,0,15.8,7.18c1.68.53,1.36,1.37-.38,1.85a10.55,10.55,0,0,1-1.57.27,9.51,9.51,0,0,1-1,.06l-1-.09a19,19,0,0,1-2.29-.4,13.31,13.31,0,0,1-2.42-.87,85.4,85.4,0,0,1-16-9.65,146.6,146.6,0,0,1-14.06-12l-4-3.89c-.65-.61-1.33-1.37-2-2.09l-1-1.09c-.32-.37-.59-.77-.9-1.15l-1.76-2.31-1.61-2.38c-1.11-1.57-2-3.23-3-4.84-4.21-7.19-7.84-14.61-11.45-22q-3.3-6.86-6.58-13.72-2.49-5.19-5.06-10.33a91.86,91.86,0,0,0-5.61-9.86,32.64,32.64,0,0,0-5.72-6.33,22.67,22.67,0,0,0-7.1-4.13,13.44,13.44,0,0,0-3.36-.67,6.52,6.52,0,0,0-3.75.66,9.34,9.34,0,0,0-1.43,1c-.24.18-.4.5-.61.67a.32.32,0,0,1-.51,0,1.9,1.9,0,0,1-.41-1.18,3.59,3.59,0,0,1,.77-2.26,5.42,5.42,0,0,1,2.59-1.78,10.86,10.86,0,0,1,4.67-.38,17.13,17.13,0,0,1,4.34,1.14,25.37,25.37,0,0,1,7.42,4.69,37.41,37.41,0,0,1,5.79,6.53c.82,1.19,1.58,2.43,2.32,3.65s1.42,2.46,2.07,3.7c3.9,7.36,7.38,14.86,11,22.27Z"/><path class="cls-1" d="M372.26,390.68c-3-2.06-6-4.17-8.93-6.3-1.07-.77-2.2-1.46-3.27-2.25l-11.17-8.39c-1.66-1.22-3.38-2.38-5.11-3.45-1.12-.69-2.25-1.36-3.37-2-.55-.33-1.1-.69-1.64-1a18.62,18.62,0,0,1-1.58-1.1c-.63-.49-.15-1.24.88-1.66a4.49,4.49,0,0,1,3.95.31,113.78,113.78,0,0,1,13.18,9.59c2.49,2.08,5.34,3.88,8,5.81,3,2.11,5.92,4.23,8.92,6.28l2.77,1.89,2.81,1.81a98.28,98.28,0,0,0,8.73,5.1,32.24,32.24,0,0,0,3.53,1.54c.6.23,1.18.48,1.78.68l1.81.58c.53.17,1.05.31,1.58.5,2,.52,2.5.92,2.72,1.95a6.79,6.79,0,0,1,.15.7c0,.76-.95,1.09-2.59.82-4.84-.86-9.42-3.07-13.79-5.46-1.6-.93-3.21-1.85-4.77-2.83s-3.13-2-4.66-3Z"/><path class="cls-1" d="M253.29,291a68.23,68.23,0,0,0-5.44-6.48c-.72-.8-1.51-1.54-2.2-2.4a28.41,28.41,0,0,1-3.31-4.92,12.78,12.78,0,0,1-1.58-6,11.84,11.84,0,0,1,1.36-5.4,12.43,12.43,0,0,1,4.42-5.1c.6-.37,1.08.4,1.24,1.42a3.86,3.86,0,0,1-.68,3.05,15.63,15.63,0,0,0-1.65,2.18,9.25,9.25,0,0,0-1,2.27,8.27,8.27,0,0,0,.31,5c.73,2.2,2.53,4.16,4.23,6.1,1.87,2.16,3.93,4.25,5.84,6.61A47.19,47.19,0,0,1,258,291.9a67.24,67.24,0,0,0,4.32,6.81,6.8,6.8,0,0,0,2.09,1.79,3,3,0,0,0,2.12.26,2.9,2.9,0,0,0,.47-.16l.47-.21c1.21-.57,1.73-.78,2.56-.2a5.57,5.57,0,0,1,.57.37c.55.46.39,1.41-.79,2.32a6.81,6.81,0,0,1-3.38,1.4,6,6,0,0,1-2.14-.14,7.17,7.17,0,0,1-1.91-.83,11.11,11.11,0,0,1-2.67-2.43,27.72,27.72,0,0,1-1.86-2.58c-1.63-2.55-3-5.05-4.62-7.27Z"/><path class="cls-1" d="M381.1,356.65c-1.58,2.32-3.27,4.56-5,6.75-.64.79-1.2,1.65-1.87,2.42a97.87,97.87,0,0,1-7.5,7.74l-3.48,3.3a17.16,17.16,0,0,1-4.94,3.7c-.61.26-1-.56-1-1.58a3.5,3.5,0,0,1,1.09-2.87c3-2.38,6-5,9-7.71a45.12,45.12,0,0,0,4.89-5.57c1.71-2.11,3.38-4.28,4.95-6.52.95-1.39,1.9-2.78,2.76-4.22a47.51,47.51,0,0,0,3.52-6.74,20,20,0,0,0,1.3-5.47c.05-.4,0-.77,0-1.14a4.56,4.56,0,0,1,.13-1.34,2.4,2.4,0,0,1,.73-.81c.17-.14.33-.32.51-.46a.76.76,0,0,1,1,0,2.59,2.59,0,0,1,.88,1.6,13.64,13.64,0,0,1-.5,6.08,33.31,33.31,0,0,1-2.13,5.45,69.5,69.5,0,0,1-4.27,7.41Z"/><path class="cls-1" d="M398.91,373.94c-2-1.36-3.73-2.74-5.46-4.1s-3.4-2.7-5.09-4a43.5,43.5,0,0,0-5-3.36,8.87,8.87,0,0,0-2.07-.89.61.61,0,0,1-.15,0,3,3,0,0,0-.06-.7l-.05-.18v-.08a1.16,1.16,0,0,0,0-.18.76.76,0,0,0-.09-.18c0-.07,0,0,0,0s0,0,0,0a1.19,1.19,0,0,0,.3.26.7.7,0,0,1,.19.1,2.33,2.33,0,0,0,.34.2,2.7,2.7,0,0,0,.3.13s0,0,0,0a.52.52,0,0,1,0,.11.56.56,0,0,1,0,.12l-1.9-.27h.26c.06,0,.24,0,.37,0a6.26,6.26,0,0,0,1-.22,1.54,1.54,0,0,1,.28-.09h0v0l.06.13.1.19a11.59,11.59,0,0,0,1.63,2c1.37,1.42,3,2.83,4.57,4.2l10.05,8.29c1.24,1,2.48,2.08,3.74,3.23.63.58,1.25,1.17,1.91,1.9A9.1,9.1,0,0,1,405,382a4.17,4.17,0,0,1,.3.53,5.15,5.15,0,0,1,.32.79,4.26,4.26,0,0,1,.13.62l0,.16v.23a3.85,3.85,0,0,1,0,.48,3.63,3.63,0,0,1-.9,2.08,5.35,5.35,0,0,1-.42.41c-.12.09-.23.17-.36.25l-.37.21-.19.09-.13.05a4.49,4.49,0,0,1-.95.25l-.37,0-.3,0h-.53a7,7,0,0,1-.87-.08,6.28,6.28,0,0,1-1-.18,12.65,12.65,0,0,1-2.95-1.23,35.94,35.94,0,0,1-4.31-2.9c-4.61-3.56-8.72-7.39-13-10.72a36.33,36.33,0,0,0-3.16-2.24,10.94,10.94,0,0,0-1.44-.77,4.6,4.6,0,0,0-.44-.15s0,.06,0-.06,0-.41,0-.61,0-.33,0-.46,0-.22-.07-.31c-.12-.3-.14-.08.4.18a1.69,1.69,0,0,0,.46.2l.31.11.16.05h0l0,.15a2.08,2.08,0,0,0,.09.88,8.22,8.22,0,0,0,1.61,2.61,35.66,35.66,0,0,0,5.87,5.11c2.19,1.6,4.5,3.12,6.85,4.63s4.73,3,7.15,4.87a12.87,12.87,0,0,1,1.9,1.8,4.25,4.25,0,0,1,1,2.11,3.11,3.11,0,0,1,0,.93l-.1.46a4.25,4.25,0,0,1-.41,1,3.79,3.79,0,0,1-1.87,1.68,4.67,4.67,0,0,1-2,.33,8.88,8.88,0,0,1-2.72-.62,39.52,39.52,0,0,1-7-3.83c-2.14-1.41-4.19-2.87-6.23-4.34l-6-4.38c-1-.72-2-1.42-3-2.09a26.56,26.56,0,0,0-2.91-1.78,3.82,3.82,0,0,0-.61-.26s0-.09,0-.21,0-.23.06-.34a3.59,3.59,0,0,0,.08-.53c0-.21,0-.32,0-.43a1.16,1.16,0,0,0,0-.18c-.36-1.5.48,2,.4,1.66h0a3.39,3.39,0,0,0-.48-1.12c-.18-.21-.17-.12,0-.1a1.31,1.31,0,0,0,.44,0c.1,0,.18,0,.29,0l.4-.07.17,0h0v0a.29.29,0,0,0,.05.1,2.3,2.3,0,0,0,.16.29,18.64,18.64,0,0,0,2.74,3.1,89.39,89.39,0,0,0,7.06,5.95c2.47,1.9,5,3.74,7.56,5.49a69,69,0,0,0,7.8,4.78c1.67.8,1.82,1,1.91,1.54a1,1,0,0,1-.7.82,5.26,5.26,0,0,1-2.23.32c-3.79-.1-10.09-2.2-16.26-6.51a98.58,98.58,0,0,1-8-6.2,33.64,33.64,0,0,1-3.83-3.82,14.71,14.71,0,0,1-1.94-2.81,8.88,8.88,0,0,1-.48-1.22,5.91,5.91,0,0,1-.2-.87,6.13,6.13,0,0,1-.06-1.17,5.08,5.08,0,0,1,1.27-3.05,4.88,4.88,0,0,1,.57-.55,4.44,4.44,0,0,1,.6-.42,5.2,5.2,0,0,1,1-.49l.45-.14L366,372l.51-.08a4.53,4.53,0,0,1,.52,0h.33c.2,0,.48.05.62.08a6.89,6.89,0,0,1,1.37.4,12.35,12.35,0,0,1,1.58.77c.89.49,1.62,1,2.35,1.46,1.44,1,2.77,1.95,4.1,2.92,2.64,1.95,5.2,3.9,7.77,5.76a77.28,77.28,0,0,0,7.68,5.06c.62.33,1.23.63,1.77.85.27.11.51.18.7.24l.21.05h0v.21c0,.14,0,.31,0,.41a3.34,3.34,0,0,0,.33,1.64,2.23,2.23,0,0,0-1.1-.5l-.34-.09-.18,0-.08,0h0c-.6-.09,5,.81,2.63.43h-.12a1,1,0,0,0-.23,0,5.52,5.52,0,0,0-1.57.78c-.17.11-.31.23-.49.36l-.25.18h0s0,0,0-.06l-.2-.22a29.73,29.73,0,0,0-3.38-2.57l-4-2.68c-2.73-1.81-5.51-3.66-8.21-5.78a46.22,46.22,0,0,1-4.77-4.24,19.86,19.86,0,0,1-2.2-2.73,10.55,10.55,0,0,1-1.62-3.81,8,8,0,0,1-.07-2.45,5.07,5.07,0,0,1,1.53-3.12,4.29,4.29,0,0,1,2.1-1,5.09,5.09,0,0,1,1.7,0,8.59,8.59,0,0,1,2.17.67,30.8,30.8,0,0,1,5.61,3.59c3.3,2.52,6.35,5.15,9.43,7.66,1.53,1.26,3.07,2.48,4.6,3.6.77.55,1.54,1.07,2.29,1.52a8.67,8.67,0,0,0,1.92.91l.42.06a1.44,1.44,0,0,0,.18,0h0c0,.18,0,.54.07.8s.06.29.1.43,0,.2,0,.3.07.19.11.29,0,.13.08.19a.67.67,0,0,0,.12.16.07.07,0,0,0,0,.05l0,0,0,0h0a.68.68,0,0,0-.35,0,2.47,2.47,0,0,0-.57.14,4,4,0,0,0-.71.31l-.46.22-.06,0h0a4.33,4.33,0,0,0-.63-.79c-.3-.34-.66-.7-1-1-1.48-1.41-3.16-2.81-4.82-4.21-3.37-2.78-6.79-5.57-10.11-8.61a51.07,51.07,0,0,1-4.85-5,14.67,14.67,0,0,1-1.15-1.58,6.36,6.36,0,0,1-1-2.39l-.05-.45c0-.17,0-.35,0-.53a2.81,2.81,0,0,1,.06-.37l.06-.3.15-.6a7.07,7.07,0,0,1,.27-.66,4.7,4.7,0,0,1,.9-1.32,4,4,0,0,1,.71-.56,3,3,0,0,1,.38-.24l.4-.16a5.37,5.37,0,0,1,2.83-.21c.35.08.73.16,1.07.26l1,.34a23.67,23.67,0,0,1,3.26,1.67c2,1.22,3.81,2.54,5.6,3.88l5.91,4.52c1,.73,1.95,1.46,2.92,2.1a8.72,8.72,0,0,0,2.46,1.29,7.35,7.35,0,0,0,.82.07h.47s0-.08,0,.15a3.18,3.18,0,0,0,.26.72,1.73,1.73,0,0,0,.23.37c.16.15.16,0-.16,0h-.25l-.3.06a2.62,2.62,0,0,0-.4.11l-.19.07c-.06,0,0,0,0,0a.45.45,0,0,0-.09-.17,8.58,8.58,0,0,0-1.09-1.35c-.46-.47-1-.95-1.48-1.42-2.08-1.89-4.37-3.68-6.66-5.46-3.22-2.52-6.51-4.9-9.76-7.68-.41-.36-.82-.73-1.24-1.16s-.78-.85-1.14-1.31a12.51,12.51,0,0,1-1-1.51,5.93,5.93,0,0,1-.8-2.16c0-.13,0-.23,0-.39a4,4,0,0,1,0-.49,2.8,2.8,0,0,1,.34-1.07,2.84,2.84,0,0,1,.79-.9,3.18,3.18,0,0,1,.87-.46,5.44,5.44,0,0,1,2.4-.16,14.9,14.9,0,0,1,3.42.89c4.28,1.64,7.63,4.43,10.75,7.15,1.56,1.38,3.06,2.78,4.55,4.07a25.17,25.17,0,0,0,2.23,1.74,3.83,3.83,0,0,0,1.67.79s0,.09,0,.17l.41,1.15a.28.28,0,0,0,0,.12l.08.12s0,0,0,0-.12,0-.27,0a1.91,1.91,0,0,0-.42.08,2,2,0,0,0-.52.17l-.34.12s0,0,0,0l0,0a2.8,2.8,0,0,0-.19-.28,14,14,0,0,0-1.37-1.55c-1-1-2.19-2.09-3.34-3.1-2.33-2-4.74-4-7.17-5.95l-3.65-3c-1.23-1-2.42-2-3.71-3.18l-.52-.54-.34-.41-.09-.12-.14-.22-.06-.11,0-.06-.06-.12a3.28,3.28,0,0,1-.2-.52c0-.19-.07-.34-.1-.52a3.45,3.45,0,0,1,0-.4,3.55,3.55,0,0,1,0-.46,3.18,3.18,0,0,1,.23-.8,2.4,2.4,0,0,1,.21-.38,2.6,2.6,0,0,1,.36-.46,2.9,2.9,0,0,1,1.71-.86,2.69,2.69,0,0,1,.48,0,2.19,2.19,0,0,1,.42,0,3.54,3.54,0,0,1,.51.1,3.89,3.89,0,0,1,.61.21,10.74,10.74,0,0,1,1.41.71l1.1.67c1.4.89,2.68,1.77,4,2.65,2.27,1.55,4.5,3,6.75,4.45,2.09,1.36,3.82,2.42,5.26,3.27l3.48,2.07c.92.55,1.62,1,2.2,1.39s1,.92,1.54,1.32a7.38,7.38,0,0,0,1.53.81c.33.19.35.41,0,.81a5,5,0,0,1-2.32,1.11,6.46,6.46,0,0,1-2,.23,13,13,0,0,1-2.3-.29,24.31,24.31,0,0,1-5.21-1.74,105.77,105.77,0,0,1-14.93-9l-1.71-1.13c-.54-.35-1.13-.71-1.46-.87l-.08,0h0l.11-.23c.15-.32.29-.65.41-1a5.6,5.6,0,0,0,.63-2.52c-.08-.21-.05,0,.17,0a1.15,1.15,0,0,0,.45,0,3.24,3.24,0,0,0,.62-.12c1.14-.3-1.47.36-1.17.29l.08,0,.15-.06.15-.08.21-.11a4.64,4.64,0,0,0,.42-.25l.2-.15.27-.18a12.45,12.45,0,0,0,1.06-.81l.74-.59.48.46.71.65c2,1.78,4.31,3.64,6.53,5.52s4.48,3.79,6.72,5.83c1.13,1,2.24,2.06,3.39,3.25a26,26,0,0,1,1.8,2.07,9,9,0,0,1,1.17,2c.06.16.13.39.18.58a4.69,4.69,0,0,1,.16.83,4.05,4.05,0,0,1,0,.52,6.44,6.44,0,0,1-.05.75,5.64,5.64,0,0,1-.18.79,6.41,6.41,0,0,1-.41.93,4.94,4.94,0,0,1-1.32,1.49,5.27,5.27,0,0,1-1.3.69,8.74,8.74,0,0,1-.94.25,4.85,4.85,0,0,1-.89.1,7.85,7.85,0,0,1-.84,0,8.64,8.64,0,0,1-1.37-.24,11.1,11.1,0,0,1-1.07-.36c-.31-.14-.63-.27-.87-.41a17.64,17.64,0,0,1-2.51-1.64c-1.38-1.08-2.52-2.12-3.63-3.14-2.2-2-4.25-3.93-6.36-5.52a23.12,23.12,0,0,0-4.38-2.69,11,11,0,0,0-2.1-.74,4.41,4.41,0,0,0-.45-.09,2,2,0,0,0-.24,0h0v-.08q0-.4-.06-.81l0-.19v-.42a3.75,3.75,0,0,0-.09-.57c0-.17-.12-.4-.15-.53a1.68,1.68,0,0,0-.09-.32,1.44,1.44,0,0,0-.19-.31.2.2,0,0,0-.05-.09s-.11-.09-.07-.05a.25.25,0,0,0,.11,0h0l.15,0a.81.81,0,0,0,.31,0l.16,0h.26a2.78,2.78,0,0,0,.49-.08c.25-.1.78-.18,1.17-.33l.59-.25.06,0h0v0a.31.31,0,0,1,0,.07c.07.1.09.18.19.31a10.31,10.31,0,0,0,1.35,1.63c.56.54,1.31,1.18,2.06,1.8l2.33,1.87c3.19,2.52,6.5,5,9.76,7.75a52.37,52.37,0,0,1,4.95,4.57,17,17,0,0,1,1.33,1.68,8.38,8.38,0,0,1,.75,1.41,4.91,4.91,0,0,1,.19.55l.08.31c0,.12.06.27.08.4s0,.28.05.42a4.67,4.67,0,0,1,0,.53,5.11,5.11,0,0,1-.05.55,5.59,5.59,0,0,1-.16.65,4.25,4.25,0,0,1-.6,1.23,4.57,4.57,0,0,1-.85.94,5.13,5.13,0,0,1-1.53.85,6.33,6.33,0,0,1-1.86.36,9.71,9.71,0,0,1-1.23,0l-.53,0-.58-.07a8.58,8.58,0,0,1-1.63-.45,9.25,9.25,0,0,1-1.2-.55,20.62,20.62,0,0,1-1.81-1.08Z"/><path class="cls-1" d="M206,190.35c.08,2.58-3,3.09-4.53,5.88-.83,1.5-.56,5.92-1.81,7-5.43,4.88-13.05,5.15-19.36,1.12-8.29-5.29-10.21-18.09-3.33-25.29C186.55,169.09,205.6,176.57,206,190.35Z"/><path class="cls-1" d="M173.56,167.15a30.9,30.9,0,0,0-12.1,15.4,29.89,29.89,0,0,0-1.36,7.11,25.54,25.54,0,0,0,2.28,12.46,11.32,11.32,0,0,0,.73,1.43c.27.46.5.94.8,1.39a28.56,28.56,0,0,0,1.92,2.6,29.9,29.9,0,0,0,4.7,4.5A31.39,31.39,0,0,0,181,217.11a13.63,13.63,0,0,0,1.81.43c.6.11,1.21.25,1.82.34a35.17,35.17,0,0,0,3.68.33c1.23.1,2.45,0,3.68,0s2.44-.17,3.65-.39c1.5-.2,1.6.69.44,1.83a7.29,7.29,0,0,1-1.11.89,8.61,8.61,0,0,1-1.58.77,11.38,11.38,0,0,1-4.27.76,35.49,35.49,0,0,1-8.34-1.19,38.37,38.37,0,0,1-7.79-3.14,35.83,35.83,0,0,1-6.82-4.92,30.4,30.4,0,0,1-5.28-6.61A30,30,0,0,1,157,186.38a33.93,33.93,0,0,1,22.5-25.95c.83-.24,1.64-.55,2.49-.72l2.54-.5c.86-.1,1.72-.16,2.58-.24a24.87,24.87,0,0,1,2.59,0,31.79,31.79,0,0,1,10,2,33,33,0,0,1,12.92,8.9l1.12,1.34a10.43,10.43,0,0,1,1.05,1.4c.59.91,1.07,1.68,1.44,2.35a9.37,9.37,0,0,1,.72,1.74,3.09,3.09,0,0,1,0,2.22,3.62,3.62,0,0,1-.37.79c-.54.63-1.59-.76-3.16-3.18a33,33,0,0,0-9-9.27,27.2,27.2,0,0,0-12.15-4.66,26.81,26.81,0,0,0-9.73.56,29,29,0,0,0-9,4.08Z"/><path class="cls-1" d="M166.4,155.6a48.71,48.71,0,0,0-10.74,10.33,47.8,47.8,0,0,0-7,13.17,42.86,42.86,0,0,0-2.11,10.67A37,37,0,0,0,150,208.43a21.69,21.69,0,0,0,1.13,2.13c.41.68.75,1.42,1.23,2.07a39,39,0,0,0,2.91,3.86,44.24,44.24,0,0,0,7,6.7,48.25,48.25,0,0,0,15.46,7.68l1.33.4,1.35.3c.9.18,1.79.4,2.7.55a48.45,48.45,0,0,0,5.48.56,23,23,0,0,0,2.75.08c.92,0,1.83,0,2.75-.06,1.81-.19,3.64-.28,5.44-.65,2.23-.36,2.24.55.45,1.83a14.54,14.54,0,0,1-1.68,1,16.21,16.21,0,0,1-2.32.86,19.9,19.9,0,0,1-6.16.82,51.7,51.7,0,0,1-12-1.83,56.47,56.47,0,0,1-11.19-4.58,54.26,54.26,0,0,1-9.83-7.08,46.19,46.19,0,0,1-7.7-9.41,41.44,41.44,0,0,1-5.48-28.59,47,47,0,0,1,2.06-7.85c.51-1.25.94-2.54,1.55-3.75l.86-1.83,1-1.78A52.5,52.5,0,0,1,159,157.2,47.93,47.93,0,0,1,175.83,147a40.07,40.07,0,0,1,14.8-2.29,44.21,44.21,0,0,1,14.59,3.05,42,42,0,0,1,18.32,13.53,34.68,34.68,0,0,1,2.82,4.24,22.69,22.69,0,0,1,2.54,6.27,5.64,5.64,0,0,1,.2,1.81,4.11,4.11,0,0,1-.25,1.29,4.27,4.27,0,0,1-.38,1c-.28.36-.72,0-1.26-1s-1.2-2.53-2.09-4.48a38.71,38.71,0,0,0-12.31-14.68,40.72,40.72,0,0,0-18.26-7.26,39.26,39.26,0,0,0-28.09,7.25Z"/><path class="cls-1" d="M251.84,149.41c4.93-2.53,10.31-4.14,14.84-7.42,1.22-.88-2.91-3.45-4.11-2.58-4.53,3.28-9.91,4.89-14.84,7.42-1.18.61,2.74,3.29,4.11,2.58Z"/><path class="cls-1" d="M233.14,128.41a56.55,56.55,0,0,1,4.36-9.77c.33-.66-1.61-.43-1.85-.4-.64.07-2.59.24-3,1a58.15,58.15,0,0,0-4.48,10.12c-.05.17,4.54.41,4.92-.9Z"/><path class="cls-1" d="M113.17,204.21c-5.38,1.37-10.47,3.68-16,4.24-1.17.12-.19,1.3.19,1.66a4.52,4.52,0,0,0,3.25,1.15c5.57-.56,10.66-2.87,16-4.24,1.87-.48-2.1-3.15-3.44-2.81Z"/><path class="cls-1" d="M118.16,171.56a57.45,57.45,0,0,0-9.89-4.54,5.38,5.38,0,0,0-3.1.15c-.18,0-2.18.78-1.59,1a57.45,57.45,0,0,1,9.89,4.54c.76.49,2.31.06,3.1-.15.21-.05,2.16-.65,1.59-1Z"/></g></svg>