<svg id="Layer_1" data-name="Layer 1" xmlns="http://www.w3.org/2000/svg" xmlns:xlink="http://www.w3.org/1999/xlink" viewBox="0 0 4000 1122.2"><defs><style>.cls-1{fill:#242538;}.cls-2{fill:url(#linear-gradient);}.cls-3{fill:url(#linear-gradient-2);}</style><linearGradient id="linear-gradient" x1="2669.78" y1="554.29" x2="3895.26" y2="554.29" gradientUnits="userSpaceOnUse"><stop offset="0" stop-color="#9336ea"/><stop offset="1" stop-color="#6f6ff3"/></linearGradient><linearGradient id="linear-gradient-2" x1="1791.66" y1="489.89" x2="2567.18" y2="489.89" xlink:href="#linear-gradient"/></defs><path class="cls-1" d="M646.4,386.83c40.92.38,81.83-.13,122.75.38-.26,185.48-.52,371,.19,556.43-40.91.32-81.83,0-122.81.06.2-185.6.52-371.27-.13-556.87m729.86,91.6c-37,69.53-41.56,151.23-36.45,228.39,67.26-19,136.6-46.41,183.27-100.6,35.28-39.94,44.87-98.92,27.52-148.83-9.13-23.31-28.62-46-55.1-48.1-49.78-5.89-97,25.83-119.24,69.14m-98.79-7.9c49.85-63.31,131.54-95.36,210.85-95,52.76-1.49,109.4,10.68,149.09,47.58,34.12,29.4,49.33,77.75,41.88,121.71-6.4,52.63-43,96.53-86.68,124-74.51,46.29-162,64.28-247.1,80,12.88,67.91,48.81,141.13,117.88,165.79,76.72,22.27,162.95-16,206.06-81.57,9.84,5.44,19.62,10.94,29.46,16.45-37.87,54.83-97.62,95.81-164.63,103.12-76.39,7.71-157.12-11.52-217.19-60.53-61.89-48.87-96.4-126.49-100.8-204.31-4.86-76.26,12-157,61.18-217.26M646.34,165q61.36,0,122.81.06c-.13,40.46-.52,81,.26,121.51-41-.06-82,.13-122.94-.13q.67-60.69-.13-121.44m-541.27.19c44.41-.26,88.82-.07,133.23.06.52,226.07-.07,452.13.26,678.26-.91,30.43,28.68,58.07,58.91,55,86.16-.78,172.33.39,258.5-.52q.87,23,.13,46c-114.33-1-228.66.26-343-.58-58.92.64-109.67-54.32-108.18-112.58q-.3-332.88.13-665.7m901.41,28.1c34-30.5,81.63-38.46,125.78-39,49.59.32,96.33,21.88,134.66,52.24-19.62,23.44-40.21,46-60.34,68.88-16.18-30.94-36.32-63.76-70.5-77-25.77-9.78-61-2.33-70.95,26-20.39,51.6-8.74,108.5-12.11,162.49,45.71.2,91.35.32,137-.06,0,11.39-.06,22.78-.19,34.11-45.58.07-91.22.46-136.79-.26.51,174.21-.52,348.36.58,522.57-41,1-82,.13-122.94.32-.32-174.34,1.23-348.68-.77-522.95-24.54.65-49.08.52-73.68.39-.06-11.4-.13-22.72-.19-34.05,24.79.13,49.59.06,74.45.06,2.33-69.72,18.25-148,75.94-193.69"/><path class="cls-2" d="M3117.89,566.93c-82.28-72-193.82-95-281.41-158.61-37.29-26.74-65.19-72.12-56-119.25,9.71-49.65,57-87.2,106.95-89.79,87.46-8.54,175,40.79,220.43,114.72,19.36-24,42.92-44.93,58.59-71.73-41.37-34-89.66-59.43-140.81-75.23-82.73-20.78-179.84-20.78-249.43,34.9-95.68,70.69-101.83,227.68-17.09,309.18,64.74,68.43,158.67,93.87,240.11,135.76,39.43,19.94,81.25,43.7,101.64,84.8,19.42,39.56,16.38,90.7-12.37,125.08-28.35,35-75.09,48.49-118.47,50.75-93.41,6.54-189.87-39.55-240-119.31-20.07,23.69-40.33,47.19-60.27,70.95,91,82.35,222,109.41,340.91,88.3,52.44-10.42,104.55-32.62,142.1-71.53C3230.73,787.49,3208,638.4,3117.89,566.93Zm519.78-34.38c81.12-122.81,164.89-243.87,245.62-366.87-18.45-.38-36.84-.38-55.22-.38-71.6,108.37-145.15,215.44-217.46,323.36q-84.29-133-168.06-266.27c-21.1-34.5-60.59-59.56-101.89-57-29.91,0-59.82-.45-89.73.58,56,89.34,111.67,178.87,168.51,267.69,29.07,48.42,62.22,94.71,89.15,144.24-7.77,17.22-20.33,31.65-30.3,47.58-71.54,105.72-141.45,212.6-214.15,317.47,18.38.78,36.77,1,55.15,1,74.06-106.24,143.92-215.51,218.56-321.36,53.34,86.1,107.59,171.62,161.13,257.59a123.66,123.66,0,0,0,75,60.6c40.07,5.5,80.79,2,121.25,2.46Q3765.92,738.26,3637.67,532.55Z"/><path class="cls-1" d="M2495,569.89c39.09-6.48,67.88-49.62,59.82-90.27-6.26-44.44-53.87-75.36-94.77-61-35.77,10.32-59.76,51.57-51.75,89.52C2414.83,548.87,2456.19,578.6,2495,569.89Zm94-210c8.69,61.08,18.46,127.2-6.36,185.69-23.73,54.76-95.64,78.71-145.43,48.87-46.47-27.79-80.08-74.55-128.73-99-43.89-24.17-95.74-25.09-143.25-14,20.06,12.43,42.24,21,61.21,35.46,55.06,38,97.19,99,106.76,168.06,8.84,58.55-7,123.15-49.17,164.4-30.86,30.92-74.13,43.3-115.7,46.76-95.33,7.19-191.75-31.68-260.71-100.23-57.75-56.22-94.2-132.06-115.81-210.5,6.31,125.79,67,246.94,162.44,323.81,76.25,62.65,173.86,95.79,270.79,92.71,87.48-1.89,174.43-32.82,243.71-88.93,83.6-66.92,141.19-167.69,159.49-276C2644.63,543.41,2630.51,444.53,2589,359.88Z"/><path class="cls-3" d="M2070.36,348q-43.43-78.81-87-157.52c-49.38,33.79-91.05,78.6-124.44,129.31,49.47,31.84,100.5,61,150.49,91.9A289.21,289.21,0,0,1,2070.36,348Zm120.77-46.22c0-60.59.1-121.14-.05-181.68a421.2,421.2,0,0,0-169.62,47.51q43.34,78.74,87,157.47A262.45,262.45,0,0,1,2191.13,301.76ZM1965.41,538c2.64-30.33,11.48-59.31,21.87-87.58-50.51-29.14-100-60.22-150.13-90.06-26.78,55.09-42,116-45.49,177.58C1849.56,538,1907.46,537.89,1965.41,538ZM2442.8,190.62q-43.28,78.66-86.8,157.15a294.29,294.29,0,0,1,60.79,63.9c50.15-30.28,100.14-60.77,150.39-90.82A436.51,436.51,0,0,0,2442.8,190.62Zm-360.65,591c-65.81-42-109.81-117.58-116.74-197.69-45.59.37-91.19-.76-136.79.59,18.35,61.57,46,121.2,88.51,168.55,61.83,70.55,154,111.42,245.62,106.23,37.94-2.27,77.18-14.27,104.12-43.79C2204.05,828,2136.48,817.81,2082.15,781.59Zm153-661.41q-.09,90.82,0,181.58A260.28,260.28,0,0,1,2318,325.12q43.5-78.74,86.9-157.53C2352.17,140,2294.11,123.54,2235.18,120.18Z"/></svg>