<svg id="Layer_1" data-name="Layer 1" xmlns="http://www.w3.org/2000/svg" xmlns:xlink="http://www.w3.org/1999/xlink" viewBox="0 0 2441.36 2594.88"><defs><style>.cls-1{fill:#242538;}.cls-2{fill:url(#linear-gradient);}</style><linearGradient id="linear-gradient" x1="64.13" y1="1102.11" x2="2191.46" y2="1102.11" gradientUnits="userSpaceOnUse"><stop offset="0" stop-color="#9336ea"/><stop offset="1" stop-color="#6f6ff3"/></linearGradient></defs><path class="cls-1" d="M1993.35,1321.56c107.21-17.79,186.2-136.12,164.08-247.64-17.16-121.88-147.77-206.7-259.94-167.41-98.14,28.32-163.94,141.47-142,245.56C1773.54,1263.88,1887,1345.44,1993.35,1321.56Zm258-576.09c23.82,167.57,50.63,348.92-17.44,509.36-65.1,150.22-262.36,215.91-398.92,134.05-127.49-76.21-219.67-204.48-353.12-271.51-120.39-66.28-262.63-68.8-393-38.4,55,34.1,115.86,57.53,167.91,97.27,151,104.25,266.61,271.51,292.84,461,24.25,160.6-19.29,337.8-134.86,450.94C1330.09,2173,1211.4,2207,1097.38,2216.47c-261.5,19.72-526-86.9-715.16-274.92-158.41-154.22-258.38-362.27-317.66-577.43,17.3,345.06,183.79,677.37,445.57,888.23,209.18,171.87,476.92,262.77,742.82,254.31,240-5.19,478.47-90,668.5-243.93,229.31-183.57,387.29-460,437.5-757C2403.9,1248.9,2365.19,977.69,2251.31,745.47Z"/><path class="cls-2" d="M1159.92,586.07c0-166.23.28-332.31-.14-498.39A1155.65,1155.65,0,0,0,694.49,218Q813.4,434,933.16,650C1004.92,616,1081.64,595,1159.92,586.07ZM540.77,1233.93c7.23-83.19,31.48-162.67,60-240.23-138.55-79.92-274.26-165.19-411.82-247-73.46,151.1-115.15,318.07-124.8,487.12C223,1234.07,381.79,1233.78,540.77,1233.93ZM828.64,712.85Q709.53,496.66,590.12,280.74C454.68,373.42,340.38,496.35,248.77,635.45c135.72,87.33,275.69,167.26,412.82,252.08A793.1,793.1,0,0,1,828.64,712.85ZM1850.26,281.19q-118.69,215.76-238.1,431.07c63.39,49.67,120.26,108.1,166.77,175.27,137.56-83,274.69-166.67,412.53-249.12C2103.26,496.06,1986,373.87,1850.26,281.19ZM861,1902.25C680.45,1787,559.77,1579.73,540.77,1360c-125.08,1-250.16-2.08-375.24,1.63C215.87,1530.5,291.6,1694.06,408.31,1824c169.61,193.51,422.46,305.61,673.75,291.38,104.09-6.23,211.73-39.15,285.62-120.11C1195.37,2029.48,1010,2001.6,861,1902.25ZM1280.74,88q-.21,249.12,0,498.1a714.07,714.07,0,0,1,227.19,64.06q119.33-216,238.38-432.11C1601.67,142.25,1442.41,97.17,1280.74,88Z"/></svg>